<?xml version="1.0" encoding="UTF-8"?>
<svg id="Layer_1" xmlns="http://www.w3.org/2000/svg" version="1.1" viewBox="0 0 531.4 436.8">
  <!-- Generator: Adobe Illustrator 29.2.1, SVG Export Plug-In . SVG Version: 2.1.0 Build 116)  -->
  <defs>
    <style>
      .st0 {
        fill: #0a0b09;
      }

      .st1 {
        fill: #0069b4;
      }
    </style>
  </defs>
  <path class="st0" d="M281.2,27.8h-38.7c-2.7,0-4.9-2.2-4.9-4.9V4.9c0-2.7,2.2-4.9,4.9-4.9h38.7c2.7,0,4.9,2.2,4.9,4.9v18c0,2.7-2.2,4.9-4.9,4.9"/>
  <path class="st0" d="M260.8,47.7v12.4c0,2.7-2.2,4.9-4.9,4.9h-13.4c-2.7,0-4.9,2.2-4.9,4.9v18c0,2.7,2.2,4.9,4.9,4.9h38.7c2.7,0,4.9-2.2,4.9-4.9v-40.2c0-2.7-2.2-4.9-4.9-4.9h-15.4c-2.7,0-4.9,2.2-4.9,4.9"/>
  <path class="st0" d="M122.2,144v-27.8c0-2.7,2.2-4.9,4.9-4.9h16.4c2.7,0,4.9,2.2,4.9,4.9v27.8c0,2.7-2.2,4.9-4.9,4.9h-16.4c-2.7,0-4.9-2.2-4.9-4.9"/>
  <path class="st0" d="M210.1,136.6h-12.4c-2.7,0-4.9,2.2-4.9,4.9v13.4c0,2.7-2.2,4.9-4.9,4.9h-18c-2.7,0-4.9-2.2-4.9-4.9v-38.7c0-2.7,2.2-4.9,4.9-4.9h40.2c2.7,0,4.9,2.2,4.9,4.9v15.4c0,2.7-2.2,4.9-4.9,4.9"/>
  <path class="st0" d="M210.1,92.9h-83c-2.7,0-4.9-2.2-4.9-4.9V5c0-2.7,2.2-4.9,4.9-4.9h83c2.7,0,4.9,2.2,4.9,4.9v83c0,2.7-2.2,4.9-4.9,4.9M143.1,72h51V21h-51v51Z"/>
  <path class="st0" d="M173.6,56.4h-10c-2.7,0-4.9-2.2-4.9-4.9v-10c0-2.7,2.2-4.9,4.9-4.9h10c2.7,0,4.9,2.2,4.9,4.9v10c0,2.7-2.2,4.9-4.9,4.9"/>
  <path class="st0" d="M396.6,93.5h-83c-2.7,0-4.9-2.2-4.9-4.9V5.6c0-2.7,2.2-4.9,4.9-4.9h83c2.7,0,4.9,2.2,4.9,4.9v83c0,2.7-2.2,4.9-4.9,4.9M329.5,72.6h51V21.6h-51v51Z"/>
  <path class="st0" d="M360,57h-10c-2.7,0-4.9-2.2-4.9-4.9v-10c0-2.7,2.2-4.9,4.9-4.9h10c2.7,0,4.9,2.2,4.9,4.9v10c0,2.7-2.2,4.9-4.9,4.9"/>
  <path class="st0" d="M210.8,271.1h-83c-2.7,0-4.9-2.2-4.9-4.9v-83c0-2.7,2.2-4.9,4.9-4.9h83c2.7,0,4.9,2.2,4.9,4.9v83c0,2.7-2.2,4.9-4.9,4.9M143.8,250.2h51v-51h-51v51Z"/>
  <path class="st0" d="M174.3,234.6h-10c-2.7,0-4.9-2.2-4.9-4.9v-10c0-2.7,2.2-4.9,4.9-4.9h10c2.7,0,4.9,2.2,4.9,4.9v10c0,2.7-2.2,4.9-4.9,4.9"/>
  <path class="st0" d="M242.5,244.9h27.8c2.7,0,4.9,2.2,4.9,4.9v16.4c0,2.7-2.2,4.9-4.9,4.9h-27.8c-2.7,0-4.9-2.2-4.9-4.9v-16.4c0-2.7,2.2-4.9,4.9-4.9"/>
  <path class="st1" d="M259.8,142.2c0-8.3,6.7-15,15-15s15,6.7,15,15-6.7,15-15,15-15-6.7-15-15"/>
  <path class="st1" d="M345.1,142.2c0-8.3,6.7-15,15-15s15,6.7,15,15-6.7,15-15,15-15-6.7-15-15"/>
  <path class="st1" d="M317.5,235.7c-13.5,0-26.6-4.6-37.1-13.1-10.3-8.3-17.6-19.9-20.6-32.7-1.3-5.4,2.1-10.9,7.5-12.1,5.4-1.3,10.9,2.1,12.1,7.5,4.1,17.8,19.8,30.2,38.1,30.2s33.9-12.4,38.1-30.2c1.3-5.4,6.7-8.8,12.1-7.5s8.8,6.7,7.5,12.1c-3,12.8-10.3,24.4-20.6,32.7-10.5,8.4-23.6,13.1-37.1,13.1"/>
  <polygon class="st0" points="0 332 19.2 332 42.2 368.7 65.4 332 84.6 332 84.6 417 66.8 417 66.8 360.3 42.2 397.5 41.8 397.5 17.5 360.7 17.5 417 0 417 0 332"/>
  <path class="st0" d="M97.2,384.9v-.2c0-18.6,13.2-33.8,32-33.8s31.5,16.7,31.5,35.2-.1,3-.2,4.7h-45.7c1.8,8.9,7.8,13.4,16.4,13.4s11-2,16.1-6.8l10.2,9c-6.1,7.5-14.7,12-26.5,12-19.4,0-33.8-13.7-33.8-33.5M143.4,379.6c-1.2-8.5-6.1-14.5-14.3-14.5s-13.2,5.7-14.6,14.5h28.9Z"/>
  <path class="st0" d="M171.4,352h17.8v9.3c4.2-5.5,9.8-10.5,19.3-10.5s15.1,3.9,18.5,10.5c5.6-6.8,12.5-10.5,21.5-10.5,13.8,0,22.1,8.3,22.1,24.1v42.1h-17.8v-36.3c0-9-4-13.8-11.2-13.8s-11.7,4.8-11.7,13.8v36.3h-17.8v-36.3c0-9-4.1-13.8-11.2-13.8s-11.7,4.9-11.7,13.8v36.3h-17.8v-64.9h0Z"/>
  <path class="st0" d="M361.9,419.6l-9.6-8.6c-7.1,4.7-15.8,7.5-25.3,7.5-26.2,0-45-19.5-45-43.7v-.2c0-24.1,19-43.9,45.2-43.9s45,19.5,45,43.7v.2c0,9.1-2.8,17.6-7.7,24.8l8.9,7.6-11.4,12.7h-.1ZM339.1,399.3l-14-12,11.4-12.8,14.1,12.8c1.8-3.7,2.7-8.1,2.7-12.6v-.2c0-15-11-27.5-26.4-27.5s-26.2,12.3-26.2,27.2v.2c0,15,11,27.4,26.4,27.4s8.4-.9,11.9-2.6"/>
  <path class="st0" d="M386.8,332h38.7c10.7,0,19.2,3,24.8,8.6s7.1,11.3,7.1,19.2v.2c0,13.8-7.6,22.4-18.6,26.3l21.3,30.7h-21l-18.8-27.7h-15.5v27.7h-17.9v-85h-.1ZM424.3,373.4c9.3,0,15-5,15-12.5v-.2c0-8.2-5.8-12.5-15.3-12.5h-19.3v25.2h19.6,0Z"/>
  <path class="st0" d="M512.9,352h18.5l-25.1,66.6c-5,13.2-10.4,18.2-21.4,18.2s-11.4-1.8-16.1-4.4l6-12.8c2.5,1.4,5.5,2.5,8.1,2.5s5.1-1.1,7-4.8l-25.8-65.2h18.8l15.4,45,14.7-45h-.1Z"/>
</svg>